<svg xmlns="http://www.w3.org/2000/svg" width="1280" height="720" viewBox="0 0 1280 720">
  <defs>
    <radialGradient id="bg" cx="62%" cy="28%" r="74%">
      <stop offset="0" stop-color="#7a4e63"/>
      <stop offset="0.42" stop-color="#2a1728"/>
      <stop offset="1" stop-color="#0c0710"/>
    </radialGradient>
    <linearGradient id="glass" x1="0" x2="1" y1="0" y2="1">
      <stop offset="0" stop-color="#fff1f8" stop-opacity=".20"/>
      <stop offset=".45" stop-color="#6f334e" stop-opacity=".50"/>
      <stop offset="1" stop-color="#160916" stop-opacity=".84"/>
    </linearGradient>
    <linearGradient id="rose" x1="0" x2="1">
      <stop offset="0" stop-color="#e7b7bd"/>
      <stop offset=".5" stop-color="#bf768b"/>
      <stop offset="1" stop-color="#f2d0bb"/>
    </linearGradient>
    <filter id="soft" x="-20%" y="-20%" width="140%" height="140%">
      <feGaussianBlur stdDeviation="10"/>
    </filter>
  </defs>
  <rect width="1280" height="720" fill="url(#bg)"/>
  <circle cx="1050" cy="110" r="170" fill="#f1c5b9" opacity=".18" filter="url(#soft)"/>
  <circle cx="330" cy="520" r="220" fill="#b85077" opacity=".16" filter="url(#soft)"/>
  <g fill="none" stroke="#e7b7bd" stroke-opacity=".20" stroke-width="1">
    <path d="M160 70h250m-214 24h178M884 72h250m-210 24h150"/>
    <circle cx="640" cy="250" r="156"/>
    <path d="M640 94v312M484 250h312M530 140l220 220M750 140 530 360"/>
  </g>
  <g transform="translate(70 44)">
    <path d="M0 30h330l34 28-34 28H0l28-28z" fill="#180b16" opacity=".68" stroke="#d7a694" stroke-width="2"/>
    <path d="M36 58h246" stroke="url(#rose)" stroke-width="2"/>
    <text x="48" y="52" font-family="Georgia, 'Noto Serif SC', serif" font-size="30" fill="#ffd5dc">炼金蔷薇</text>
    <text x="52" y="76" font-family="Georgia, serif" font-size="14" fill="#d7a694" letter-spacing="3">ALCHEMY ROSE</text>
  </g>
  <g transform="translate(72 430)">
    <path d="M0 0h650l34 32v118H0z" fill="url(#glass)" stroke="#d7a694" stroke-width="2"/>
    <path d="M26 34h230l20 22-20 22H26l20-22z" fill="#3a1628" opacity=".70" stroke="#e7b7bd"/>
    <text x="58" y="63" font-family="'Noto Serif SC', Georgia, serif" font-size="27" fill="#ffe2e7">优米雅</text>
    <text x="36" y="112" font-family="'Noto Serif SC', Georgia, serif" font-size="26" fill="#fff0f3">“今天的实验，也许会开出新的花。”</text>
  </g>
  <g transform="translate(748 454)" font-family="'Noto Serif SC', Georgia, serif" font-size="22">
    <path d="M0 0h450l26 22-26 42H0l22-32z" fill="#7c314f" opacity=".74" stroke="#f0b5c0"/>
    <text x="66" y="39" fill="#fff4f5">A. 接受她的邀请</text>
    <path d="M0 78h450l26 22-26 42H0l22-32z" fill="#21162c" opacity=".70" stroke="#7fc5d6"/>
    <text x="66" y="117" fill="#eefcff">B. 先整理实验记录</text>
    <path d="M0 156h450l26 22-26 42H0l22-32z" fill="#21162c" opacity=".58" stroke="#7fc5d6"/>
    <text x="66" y="195" fill="#eefcff">C. 明天再说</text>
  </g>
</svg>
