<svg xmlns="http://www.w3.org/2000/svg" width="1280" height="720" viewBox="0 0 1280 720">
  <defs>
    <radialGradient id="bg" cx="72%" cy="20%" r="80%"><stop offset="0" stop-color="#68445b"/><stop offset=".42" stop-color="#221327"/><stop offset="1" stop-color="#09060d"/></radialGradient>
    <linearGradient id="panel" x1="0" x2="1"><stop offset="0" stop-color="#120813" stop-opacity=".82"/><stop offset=".5" stop-color="#3e1a32" stop-opacity=".76"/><stop offset="1" stop-color="#120813" stop-opacity=".82"/></linearGradient>
  </defs>
  <rect width="1280" height="720" fill="url(#bg)"/>
  <rect x="54" y="48" width="1172" height="624" rx="10" fill="url(#panel)" stroke="#d9a994" stroke-opacity=".36" stroke-width="2"/>
  <rect x="82" y="86" width="1116" height="544" rx="4" fill="none" stroke="#efb6c4" stroke-opacity=".10"/>
  <g fill="none" stroke="#d9a994" stroke-opacity=".30" stroke-width="2">
    <path d="M54 130v-72q0-10 10-10h126M1226 130v-72q0-10-10-10h-126M54 590v72q0 10 10 10h126M1226 590v72q0 10-10 10h-126"/>
  </g>
  <g fill="none" stroke="#efb6c4" stroke-opacity=".16">
    <circle cx="190" cy="130" r="24"/><circle cx="1090" cy="130" r="24"/><circle cx="190" cy="590" r="24"/><circle cx="1090" cy="590" r="24"/>
  </g>
</svg>
