<svg xmlns="http://www.w3.org/2000/svg" viewBox="0 0 400 700">
  <!-- Haruki - Normal expression -->
  <!-- Hair (short, dark blue) -->
  <ellipse cx="200" cy="120" rx="85" ry="75" fill="#2C3E6B"/>
  <!-- Face -->
  <ellipse cx="200" cy="160" rx="68" ry="78" fill="#FFE4D0"/>
  <!-- Eyes -->
  <ellipse cx="172" cy="165" rx="13" ry="16" fill="#3A5A8A"/>
  <ellipse cx="228" cy="165" rx="13" ry="16" fill="#3A5A8A"/>
  <circle cx="168" cy="160" r="4" fill="white" opacity="0.8"/>
  <circle cx="224" cy="160" r="4" fill="white" opacity="0.8"/>
  <!-- Eyebrows -->
  <path d="M152,143 Q172,138 190,144" stroke="#2C3E6B" stroke-width="3" fill="none"/>
  <path d="M210,144 Q228,138 248,143" stroke="#2C3E6B" stroke-width="3" fill="none"/>
  <!-- Nose -->
  <path d="M198,183 Q200,190 202,183" stroke="#E0B0A0" stroke-width="1.5" fill="none"/>
  <!-- Mouth -->
  <path d="M186,205 Q200,210 214,205" stroke="#C08070" stroke-width="2" fill="none"/>
  <!-- Bangs (short, spiky) -->
  <path d="M135,115 Q145,70 165,100 Q175,60 200,95 Q215,55 230,95 Q245,70 265,115" fill="#2C3E6B"/>
  <!-- Body - School uniform (male) -->
  <path d="M135,245 L115,500 L285,500 L265,245" fill="#2C3E6B"/>
  <!-- White shirt visible at collar -->
  <path d="M165,243 L200,275 L235,243" fill="white" stroke="#DDD" stroke-width="1"/>
  <!-- Tie -->
  <rect x="194" y="265" width="12" height="80" fill="#C04040" rx="2"/>
  <path d="M194,265 L200,255 L206,265" fill="#C04040"/>
  <!-- Pants -->
  <path d="M125,500 L110,680 L195,680 L200,500 L205,680 L290,680 L275,500" fill="#2A2A3A"/>
</svg>
