<svg xmlns="http://www.w3.org/2000/svg" viewBox="0 0 400 700">
  <!-- Sakura - Smile expression -->
  <ellipse cx="200" cy="140" rx="95" ry="105" fill="#FFB7C5"/>
  <path d="M105,140 Q105,500 140,600 L120,700 L280,700 L260,600 Q295,500 295,140" fill="#FFB7C5"/>
  <ellipse cx="200" cy="165" rx="72" ry="82" fill="#FFE4D0"/>
  <!-- Happy eyes (curved) -->
  <path d="M155,170 Q170,155 185,170" stroke="#4A90D9" stroke-width="3" fill="none"/>
  <path d="M215,170 Q230,155 245,170" stroke="#4A90D9" stroke-width="3" fill="none"/>
  <!-- Eyebrows -->
  <path d="M150,148 Q170,142 188,150" stroke="#C08090" stroke-width="2.5" fill="none"/>
  <path d="M212,150 Q230,142 250,148" stroke="#C08090" stroke-width="2.5" fill="none"/>
  <!-- Blush -->
  <ellipse cx="155" cy="190" rx="18" ry="8" fill="#FFB0B0" opacity="0.5"/>
  <ellipse cx="245" cy="190" rx="18" ry="8" fill="#FFB0B0" opacity="0.5"/>
  <path d="M198,188 Q200,195 202,188" stroke="#E0B0A0" stroke-width="1.5" fill="none"/>
  <!-- Smile -->
  <path d="M180,210 Q200,225 220,210" stroke="#E08080" stroke-width="2.5" fill="none"/>
  <!-- Bangs -->
  <path d="M128,120 Q140,90 160,115 Q170,80 200,110 Q220,80 240,115 Q260,90 272,120" fill="#FFB7C5"/>
  <circle cx="130" cy="130" r="10" fill="#FF8FAA"/>
  <circle cx="270" cy="130" r="10" fill="#FF8FAA"/>
  <!-- Body -->
  <path d="M140,250 L120,500 L280,500 L260,250" fill="#2C3E6B"/>
  <path d="M160,248 L200,290 L240,248" fill="white" stroke="#DDD" stroke-width="1"/>
  <path d="M190,270 L200,290 L210,270 L205,275 L200,265 L195,275 Z" fill="#E05050"/>
  <path d="M130,500 L110,660 L290,660 L270,500" fill="#3A4A7A"/>
  <line x1="150" y1="500" x2="140" y2="660" stroke="#2C3E6B" stroke-width="1" opacity="0.5"/>
  <line x1="190" y1="500" x2="185" y2="660" stroke="#2C3E6B" stroke-width="1" opacity="0.5"/>
  <line x1="230" y1="500" x2="225" y2="660" stroke="#2C3E6B" stroke-width="1" opacity="0.5"/>
</svg>
